<svg width="135" height="33" viewBox="0 0 135 33" fill="none" xmlns="http://www.w3.org/2000/svg">
<path d="M63.6813 20.0442L61.9568 24.8349C61.9568 25.0274 61.765 25.0274 61.765 25.0274H59.0824C58.8906 25.0274 58.8906 25.0274 58.8906 24.8349C60.4233 20.8114 62.723 13.913 64.4474 9.31349C64.4474 9.12263 64.6393 8.73903 64.6393 7.78098C64.6393 7.58918 64.6393 7.58918 64.8311 7.58918H68.4717C68.6636 7.39739 68.6636 7.58918 68.6636 7.58918C70.5788 13.146 72.8787 19.0863 74.7948 24.644C74.7948 24.835 74.7948 24.835 74.604 24.835H71.537C71.346 24.835 71.346 24.835 71.346 24.644L69.6207 19.8536H63.6813V20.0442ZM69.0461 17.362C68.4717 15.6376 67.13 11.997 66.7472 10.0808C66.3638 11.8052 65.2138 14.8712 64.4475 17.362H69.0461ZM76.5202 18.5119C76.5202 14.6794 79.3945 11.6133 83.9922 11.6133C84.5685 11.6133 85.143 11.6133 85.5267 11.8051V6.05654C85.5267 5.86475 85.5267 5.86475 85.7175 5.86475H88.5918C88.7827 5.86475 88.7827 5.86475 88.7827 6.05654V23.4932C88.7827 23.6857 88.7827 23.6857 88.5918 23.6857C86.8666 24.4512 84.9502 25.0274 83.2268 25.0274C79.2018 25.2185 76.5202 23.1114 76.5202 18.5119ZM85.3338 14.4876C84.9502 14.2958 84.3758 14.2958 83.8012 14.2958C81.3106 14.2958 79.778 15.8294 79.778 18.5119C79.778 21.5769 81.5015 22.7278 83.6104 22.7278C84.1849 22.7278 84.9502 22.5351 85.5265 22.5351V14.4876H85.3338ZM104.879 18.321C104.879 22.5352 102.196 25.2185 98.3636 25.2185C93.7658 25.2185 91.8497 21.7697 91.8497 18.5119C91.8497 14.4876 94.5313 11.8051 98.5563 11.8051C102.58 11.6133 104.879 14.6794 104.879 18.321ZM95.1076 18.321C95.1076 21.0026 96.2566 22.7279 98.3637 22.7279C100.089 22.7279 101.431 21.577 101.431 18.321C101.431 15.8294 100.473 13.9131 98.173 13.9131C96.4474 14.104 95.1076 15.6376 95.1076 18.321ZM110.628 6.05654C110.819 6.05654 110.819 6.05654 110.819 6.24834V12.3796C111.777 11.9969 112.735 11.8051 113.693 11.8051C117.335 11.8051 119.635 14.4876 119.635 17.9374C119.635 22.5351 115.993 25.4093 111.777 25.4093C110.437 25.4093 109.095 25.2184 107.754 24.8349C107.563 24.8349 107.563 24.6439 107.563 24.6439V6.24834C107.563 6.05654 107.563 6.05654 107.754 6.05654H110.628ZM113.119 14.2958C112.353 14.2958 111.586 14.4876 111.012 14.6794V22.5351C111.395 22.7278 111.97 22.7278 112.544 22.7278C114.46 22.7278 116.76 21.1952 116.76 18.128C116.568 15.6376 115.035 14.2958 113.119 14.2958ZM125.767 19.0863C125.767 21.1953 127.107 22.5351 129.79 22.5351C130.748 22.5351 131.897 22.3441 133.048 21.9606C133.048 21.9606 133.239 21.9606 133.239 22.1533V24.2604C133.239 24.4512 133.239 24.4512 133.048 24.6439C132.09 25.2183 130.748 25.4093 129.023 25.4093C124.232 25.4093 122.316 22.1533 122.316 18.7025C122.316 14.8711 124.616 11.805 128.641 11.805C132.664 11.805 134.197 14.8711 134.197 17.3617C134.197 18.5117 134.006 19.0862 134.006 19.0862H125.767V19.0863ZM129.981 16.9783C130.939 16.9783 131.132 16.7876 131.132 16.7876V16.4038C131.132 15.6376 130.557 13.9131 128.448 13.9131C126.725 13.9131 125.767 15.2539 125.574 16.9783H129.981Z" fill="#9C9C9C"/>
<path d="M23.2498 0.5L36.6632 32.5V0.5H23.2498ZM0.447266 0.5V32.5L13.8607 0.5H0.447266ZM12.7107 25.986H18.843L21.5255 32.5H27.0822L18.4594 12.188L12.7107 25.986Z" fill="#9C9C9C"/>
</svg>
