<svg width="52" height="62" viewBox="0 0 52 62" fill="none" xmlns="http://www.w3.org/2000/svg">
<path d="M16.5312 5.6375C19.1484 5.66793 21.648 6.72899 23.4879 8.59052C25.3278 10.452 26.3596 12.9639 26.3594 15.5812V31.6531C26.3594 32.9438 26.1052 34.2218 25.6113 35.4142C25.1173 36.6066 24.3934 37.69 23.4808 38.6027C22.5682 39.5153 21.4847 40.2392 20.2923 40.7331C19.0999 41.227 17.8219 41.4812 16.5312 41.4812C13.9247 41.4812 11.4248 40.4458 9.58172 38.6027C7.73858 36.7595 6.70313 34.2597 6.70313 31.6531V15.5812C6.70295 12.9639 7.7347 10.452 9.57458 8.59052C11.4145 6.72899 13.9141 5.66793 16.5312 5.6375Z" fill="white"/>
<path d="M15.9532 6.79375C14.388 6.80214 12.8475 7.18425 11.4598 7.90826C10.0721 8.63228 8.87738 9.67726 7.9751 10.9562C9.62309 9.76105 11.605 9.11391 13.6407 9.10625C19.0751 9.10625 22.3126 13.6156 22.3126 19.05V35.1219C22.3379 37.1628 21.6875 39.1548 20.4626 40.7875C23.0063 39.0531 25.7813 36.1625 25.7813 32.8094V16.7375C25.7815 14.1202 24.7498 11.6083 22.9099 9.74677C21.07 7.88524 18.5704 6.82418 15.9532 6.79375Z" fill="#DEE0E2"/>
<path d="M3.92832 60.675H29.1346M31.9096 28.8781V32.5781C31.8793 36.6473 30.2494 40.5412 27.372 43.4187C24.4946 46.2961 20.6006 47.926 16.5314 47.9563C12.4623 47.926 8.56833 46.2961 5.69091 43.4187C2.81348 40.5412 1.18358 36.6473 1.15332 32.5781V28.8781H31.9096ZM16.5314 47.9563V60.0969V47.9563Z" stroke="#4D535B" stroke-width="2" stroke-miterlimit="10"/>
<path d="M16.5312 5.6375C19.1484 5.66793 21.648 6.72899 23.4879 8.59052C25.3278 10.452 26.3596 12.9639 26.3594 15.5812V31.6531C26.3594 32.9438 26.1052 34.2218 25.6113 35.4142C25.1173 36.6066 24.3934 37.69 23.4808 38.6027C22.5682 39.5153 21.4847 40.2392 20.2923 40.7331C19.0999 41.227 17.8219 41.4812 16.5312 41.4812C13.9247 41.4812 11.4248 40.4458 9.58172 38.6027C7.73858 36.7595 6.70313 34.2597 6.70313 31.6531V15.5812C6.70295 12.9639 7.7347 10.452 9.57458 8.59052C11.4145 6.72899 13.9141 5.66793 16.5312 5.6375V5.6375ZM7.16562 15.2344H12.7156H7.16562ZM7.16562 20.7844H12.7156H7.16562ZM7.16562 26.45H12.7156H7.16562ZM7.16562 32H12.7156H7.16562ZM20.3469 15.2344H25.8969H20.3469ZM20.3469 20.7844H25.8969H20.3469ZM20.3469 26.45H25.8969H20.3469ZM20.3469 32H25.8969H20.3469ZM38.2687 15.6969C38.6658 15.5494 39.0922 15.499 39.5127 15.5496C39.9332 15.6003 40.3354 15.7506 40.686 15.9882C41.0367 16.2257 41.3255 16.5435 41.5285 16.9152C41.7315 17.2868 41.8428 17.7016 41.8531 18.125C41.7872 19.0887 41.3971 20.0017 40.7463 20.7155C40.0955 21.4293 39.2223 21.9019 38.2687 22.0562C36.3031 22.4031 34.6844 21.3625 34.6844 19.5125C34.775 18.5694 35.1761 17.683 35.8248 16.9924C36.4735 16.3019 37.3331 15.8462 38.2687 15.6969V15.6969Z" stroke="#4D535B" stroke-width="2" stroke-miterlimit="10"/>
<path d="M41.7378 7.14062L50.1784 10.1469V4.94375L41.7378 1.9375V18.9344" stroke="#4D535B" stroke-width="2" stroke-miterlimit="10"/>
<g style="mix-blend-mode:darken">
<path d="M38.2689 15.6969C38.6659 15.5494 39.0924 15.499 39.5129 15.5496C39.9333 15.6003 40.3356 15.7506 40.6862 15.9882C41.0369 16.2257 41.3257 16.5435 41.5287 16.9152C41.7317 17.2868 41.843 17.7016 41.8533 18.125C41.7874 19.0887 41.3973 20.0017 40.7465 20.7155C40.0957 21.4293 39.2225 21.9019 38.2689 22.0562C36.3033 22.4031 34.6846 21.3625 34.6846 19.5125C34.7752 18.5694 35.1763 17.683 35.825 16.9924C36.4737 16.3019 37.3333 15.8462 38.2689 15.6969ZM41.6221 7.14062L50.0627 10.1469V4.94375L41.6221 1.9375" fill="#F9B3FF"/>
</g>
</svg>
