<svg width="44" height="44" viewBox="0 0 44 44" fill="none" xmlns="http://www.w3.org/2000/svg">
<rect width="44" height="44" rx="22" fill="white"/>
<path d="M17.9165 27.4999C16.9082 27.4999 16.0923 28.3249 16.0923 29.3333C16.0923 30.3416 16.9082 31.1666 17.9165 31.1666C18.9248 31.1666 19.7498 30.3416 19.7498 29.3333C19.7498 28.3249 18.9248 27.4999 17.9165 27.4999ZM12.4165 13.7499C12.4165 14.2541 12.829 14.6666 13.3332 14.6666H14.2498L17.5498 21.6241L16.3123 23.8608C15.6432 25.0891 16.5232 26.5833 17.9165 26.5833H27.9998C28.504 26.5833 28.9165 26.1708 28.9165 25.6666C28.9165 25.1624 28.504 24.7499 27.9998 24.7499H17.9165L18.9248 22.9166H25.754C26.4415 22.9166 27.0465 22.5408 27.3582 21.9724L30.6398 16.0233C30.979 15.4183 30.539 14.6666 29.8423 14.6666H16.2757L15.6615 13.3558C15.5148 13.0349 15.1848 12.8333 14.8365 12.8333H13.3332C12.829 12.8333 12.4165 13.2458 12.4165 13.7499V13.7499ZM27.0832 27.4999C26.0748 27.4999 25.259 28.3249 25.259 29.3333C25.259 30.3416 26.0748 31.1666 27.0832 31.1666C28.0915 31.1666 28.9165 30.3416 28.9165 29.3333C28.9165 28.3249 28.0915 27.4999 27.0832 27.4999Z" fill="url(#paint0_linear)"/>
<defs>
<linearGradient id="paint0_linear" x1="12.4165" y1="12.8333" x2="35.9179" y2="21.8212" gradientUnits="userSpaceOnUse">
<stop stop-color="#CA5CD4"/>
<stop offset="1" stop-color="#612966"/>
</linearGradient>
</defs>
</svg>
