<svg width="58" height="50" viewBox="0 0 58 50" fill="none" xmlns="http://www.w3.org/2000/svg">
<path d="M1.25 12.2812H56.75V49.2812H1.25V12.2812Z" fill="white"/>
<path d="M1.25 12.2812V15.75H52.125V49.2812H56.75V12.2812H1.25Z" fill="#DEE0E2"/>
<path d="M31.775 20.2594L27.2656 41.4188M21.0219 23.7281L12.2344 30.8969L21.0219 37.95V23.7281ZM36.9781 23.7281L45.7656 30.8969L36.9781 37.95V23.7281Z" stroke="#4D535B" stroke-width="2" stroke-miterlimit="10"/>
<path d="M56.1719 11.9344H1.82812M56.1719 1.06563H1.82812V48.9344H56.1719V1.06563Z" stroke="#4D535B" stroke-width="2" stroke-miterlimit="10"/>
<path d="M49.3499 5.80626C49.1935 5.78767 49.035 5.80479 48.8863 5.85632C48.7375 5.90785 48.6024 5.99246 48.4911 6.10377C48.3798 6.21509 48.2952 6.3502 48.2437 6.49895C48.1921 6.6477 48.175 6.8062 48.1936 6.96251C48.1936 7.26917 48.3154 7.56327 48.5323 7.78011C48.7491 7.99695 49.0432 8.11876 49.3499 8.11876C49.6478 8.09272 49.927 7.96253 50.1384 7.75108C50.3499 7.53962 50.4801 7.26042 50.5061 6.96251C50.5061 6.65586 50.3843 6.36176 50.1675 6.14492C49.9506 5.92808 49.6565 5.80626 49.3499 5.80626V5.80626ZM41.603 5.80626C41.4467 5.78767 41.2882 5.80479 41.1394 5.85632C40.9907 5.90785 40.8556 5.99246 40.7442 6.10377C40.6329 6.21509 40.5483 6.3502 40.4968 6.49895C40.4453 6.6477 40.4281 6.8062 40.4467 6.96251C40.4467 7.26917 40.5686 7.56327 40.7854 7.78011C41.0022 7.99695 41.2963 8.11876 41.603 8.11876C41.9009 8.09272 42.1801 7.96253 42.3915 7.75108C42.603 7.53962 42.7332 7.26042 42.7592 6.96251C42.7592 6.65586 42.6374 6.36176 42.4206 6.14492C42.2037 5.92808 41.9096 5.80626 41.603 5.80626V5.80626Z" stroke="#4D535B" stroke-width="2" stroke-miterlimit="10"/>
<g style="mix-blend-mode:darken">
<path d="M1.25 0.71875H56.75V12.2812H1.25V0.71875Z" fill="#F9B3FF"/>
</g>
</svg>
