<svg width="76" height="25" viewBox="0 0 76 25" fill="none" xmlns="http://www.w3.org/2000/svg">
<path d="M32.5479 13.1564C32.5479 16.7532 29.7342 19.4036 26.2811 19.4036C22.8279 19.4036 20.0142 16.7532 20.0142 13.1564C20.0142 9.53424 22.8279 6.90918 26.2811 6.90918C29.7342 6.90918 32.5479 9.53424 32.5479 13.1564ZM29.8046 13.1564C29.8046 10.9087 28.1738 9.37088 26.2811 9.37088C24.3883 9.37088 22.7575 10.9087 22.7575 13.1564C22.7575 15.3815 24.3883 16.9419 26.2811 16.9419C28.1738 16.9419 29.8046 15.3787 29.8046 13.1564Z" fill="#C9B8CC"/>
<path d="M46.0675 13.1564C46.0675 16.7532 43.2537 19.4036 39.8006 19.4036C36.3475 19.4036 33.5337 16.7532 33.5337 13.1564C33.5337 9.53706 36.3475 6.90918 39.8006 6.90918C43.2537 6.90918 46.0675 9.53424 46.0675 13.1564ZM43.3241 13.1564C43.3241 10.9087 41.6933 9.37088 39.8006 9.37088C37.9078 9.37088 36.277 10.9087 36.277 13.1564C36.277 15.3815 37.9078 16.9419 39.8006 16.9419C41.6933 16.9419 43.3241 15.3787 43.3241 13.1564Z" fill="#C9B8CC"/>
<path d="M59.024 7.2866V18.5022C59.024 23.1158 56.3032 25.0001 53.0866 25.0001C50.0588 25.0001 48.2365 22.975 47.5492 21.3188L49.9377 20.3246C50.363 21.3414 51.4051 22.5412 53.0838 22.5412C55.1427 22.5412 56.4186 21.2709 56.4186 18.8797V17.9812H56.3229C55.7089 18.7388 54.5259 19.4007 53.0331 19.4007C49.9095 19.4007 47.0479 16.6799 47.0479 13.1789C47.0479 9.65253 49.9095 6.90918 53.0331 6.90918C54.5231 6.90918 55.706 7.57108 56.3229 8.30621H56.4186V7.28942H59.024V7.2866ZM56.613 13.1789C56.613 10.9791 55.1455 9.37088 53.2781 9.37088C51.3854 9.37088 49.7997 10.9791 49.7997 13.1789C49.7997 15.3561 51.3854 16.9419 53.2781 16.9419C55.1455 16.9419 56.613 15.3561 56.613 13.1789Z" fill="#C9B8CC"/>
<path d="M63.3193 0.712646V19.0205H60.6436V0.712646H63.3193Z" fill="#C9B8CC"/>
<path d="M73.7462 15.2124L75.8755 16.6319C75.1883 17.6487 73.5321 19.4006 70.6705 19.4006C67.1216 19.4006 64.4712 16.6573 64.4712 13.1534C64.4712 9.43836 67.1441 6.90625 70.3635 6.90625C73.6054 6.90625 75.1911 9.48624 75.7094 10.8805L75.9938 11.5902L67.6427 15.049C68.282 16.3024 69.2763 16.9417 70.6705 16.9417C72.0675 16.9417 73.0364 16.2545 73.7462 15.2124ZM67.192 12.9647L72.7745 10.6467C72.4675 9.86648 71.5436 9.32288 70.4564 9.32288C69.0622 9.32288 67.1216 10.5537 67.192 12.9647Z" fill="#C9B8CC"/>
<path d="M9.88569 11.5311V8.8807H18.8171C18.9044 9.34262 18.9495 9.88903 18.9495 10.4805C18.9495 12.469 18.4059 14.9279 16.6539 16.6798C14.9499 18.4543 12.7727 19.4006 9.88851 19.4006C4.54263 19.4006 0.0473633 15.0462 0.0473633 9.70032C0.0473633 4.35444 4.54263 0 9.88851 0C12.8459 0 14.9527 1.16043 16.5356 2.67294L14.6654 4.54315C13.5304 3.47848 11.9925 2.65041 9.88569 2.65041C5.98191 2.65041 2.92873 5.79653 2.92873 9.70032C2.92873 13.6041 5.98191 16.7502 9.88569 16.7502C12.4178 16.7502 13.8599 15.7335 14.7837 14.8096C15.5329 14.0604 16.0258 12.9901 16.2202 11.5283L9.88569 11.5311Z" fill="#C9B8CC"/>
</svg>
