<svg width="133" height="29" viewBox="0 0 133 29" fill="none" xmlns="http://www.w3.org/2000/svg">
<path d="M132.105 13.1667V10.8602H129.24V7.27442L129.144 7.30411L126.454 8.12725L126.401 8.14336V10.8603H122.154V9.34673C122.154 8.64196 122.312 8.10263 122.623 7.74295C122.931 7.38759 123.372 7.20692 123.935 7.20692C124.339 7.20692 124.758 7.3022 125.18 7.4901L125.285 7.5373V5.10822L125.236 5.08995C124.842 4.94862 124.308 4.87744 123.645 4.87744C122.809 4.87744 122.05 5.05925 121.388 5.41956C120.726 5.78038 120.205 6.29548 119.84 6.95039C119.476 7.60454 119.291 8.36005 119.291 9.19614V10.8602H117.297V13.1667H119.291V22.8836H122.154V13.1667H126.401V19.3416C126.401 21.8848 127.6 23.1735 129.966 23.1735C130.355 23.1735 130.764 23.128 131.182 23.0388C131.607 22.9472 131.897 22.8557 132.067 22.758L132.105 22.7357V20.4079L131.988 20.4849C131.833 20.5884 131.639 20.673 131.413 20.736C131.185 20.8 130.994 20.8321 130.847 20.8321C130.293 20.8321 129.883 20.6828 129.628 20.3881C129.371 20.0907 129.241 19.5706 129.241 18.8432V13.1667H132.105ZM110.903 20.8325C109.864 20.8325 109.045 20.4879 108.467 19.8092C107.886 19.127 107.592 18.1544 107.592 16.9187C107.592 15.6437 107.886 14.6459 108.467 13.9516C109.045 13.262 109.857 12.9119 110.88 12.9119C111.873 12.9119 112.663 13.2462 113.229 13.9061C113.798 14.5694 114.087 15.5592 114.087 16.849C114.087 18.1546 113.815 19.1576 113.28 19.8284C112.748 20.4943 111.948 20.8325 110.903 20.8325ZM111.03 10.5705C109.048 10.5705 107.473 11.1515 106.35 12.2972C105.228 13.4431 104.659 15.0289 104.659 17.0109C104.659 18.8934 105.215 20.4076 106.31 21.5108C107.405 22.6143 108.896 23.1733 110.74 23.1733C112.662 23.1733 114.206 22.5842 115.328 21.4226C116.45 20.2622 117.019 18.6914 117.019 16.7558C117.019 14.8438 116.485 13.3183 115.433 12.2225C114.379 11.1262 112.898 10.5705 111.03 10.5705ZM100.043 10.5705C98.6944 10.5705 97.5788 10.9155 96.7266 11.5957C95.8692 12.2799 95.4343 13.1772 95.4343 14.2631C95.4343 14.8276 95.5282 15.329 95.7129 15.7542C95.8988 16.1809 96.1864 16.5566 96.5685 16.8718C96.9478 17.1846 97.5331 17.5122 98.3088 17.8455C98.9609 18.1138 99.4472 18.3408 99.7562 18.5196C100.058 18.695 100.272 18.8712 100.393 19.0429C100.511 19.2108 100.571 19.4407 100.571 19.7244C100.571 20.5322 99.9658 20.9252 98.721 20.9252C98.2593 20.9252 97.7327 20.8288 97.1558 20.6388C96.583 20.4516 96.0424 20.1775 95.5529 19.826L95.434 19.7408V22.4973L95.4777 22.5176C95.8828 22.7046 96.3936 22.8623 96.9956 22.9864C97.5964 23.1106 98.1424 23.1738 98.6166 23.1738C100.08 23.1738 101.259 22.8272 102.119 22.143C102.984 21.454 103.423 20.5355 103.423 19.4121C103.423 18.6016 103.186 17.9066 102.721 17.3461C102.259 16.7901 101.457 16.2797 100.338 15.8286C99.4464 15.4708 98.8753 15.1738 98.6397 14.9458C98.4126 14.7256 98.2973 14.4141 98.2973 14.0197C98.2973 13.67 98.4396 13.3899 98.7318 13.163C99.0263 12.935 99.4362 12.8191 99.9503 12.8191C100.427 12.8191 100.915 12.8944 101.401 13.0421C101.886 13.1898 102.312 13.3876 102.667 13.6295L102.784 13.7095V11.0946L102.74 11.0754C102.411 10.9347 101.979 10.8143 101.453 10.7166C100.93 10.6195 100.456 10.5705 100.043 10.5705ZM87.9703 20.8325C86.9314 20.8325 86.1118 20.4879 85.5345 19.8092C84.9534 19.127 84.6596 18.1546 84.6596 16.9187C84.6596 15.6437 84.9538 14.6459 85.5351 13.9516C86.1124 13.262 86.9238 12.9119 87.9474 12.9119C88.9397 12.9119 89.73 13.2462 90.2962 13.9061C90.8653 14.5694 91.1539 15.5592 91.1539 16.849C91.1539 18.1546 90.8823 19.1576 90.3469 19.8284C89.8152 20.4943 89.016 20.8325 87.9703 20.8325ZM88.098 10.5705C86.1148 10.5705 84.54 11.1515 83.4178 12.2972C82.2957 13.4431 81.7265 15.0289 81.7265 17.0109C81.7265 18.8942 82.2822 20.4076 83.3776 21.5108C84.473 22.6143 85.9636 23.1733 87.8079 23.1733C89.7295 23.1733 91.2733 22.5842 92.3956 21.4226C93.5175 20.2622 94.0863 18.6914 94.0863 16.7558C94.0863 14.8438 93.5527 13.3183 92.4998 12.2225C91.4463 11.1262 89.9652 10.5705 88.098 10.5705ZM77.3804 12.9424V10.8602H74.5521V22.8834H77.3804V16.733C77.3804 15.6872 77.6175 14.8281 78.0854 14.1791C78.5473 13.5379 79.1629 13.213 79.9145 13.213C80.1692 13.213 80.4552 13.255 80.7649 13.3381C81.0714 13.4207 81.2935 13.5104 81.4244 13.6048L81.5433 13.6909V10.8396L81.4975 10.82C81.2341 10.7081 80.8615 10.6516 80.39 10.6516C79.6793 10.6516 79.0433 10.88 78.4985 11.3296C78.0203 11.7248 77.6747 12.2667 77.4104 12.9424H77.3804ZM69.4873 10.5705C68.1898 10.5705 67.0325 10.8488 66.0481 11.3972C65.0616 11.947 64.2988 12.7318 63.7797 13.7298C63.263 14.7253 63.0006 15.8882 63.0006 17.1851C63.0006 18.3211 63.255 19.3636 63.7578 20.2824C64.2608 21.2027 64.9728 21.9227 65.8741 22.4221C66.7742 22.9208 67.8144 23.1737 68.9661 23.1737C70.3102 23.1737 71.4577 22.9049 72.3778 22.375L72.415 22.3537V19.7626L72.2961 19.8494C71.8793 20.153 71.4136 20.3953 70.9124 20.5699C70.4126 20.7443 69.9569 20.8325 69.5572 20.8325C68.4475 20.8325 67.5566 20.4853 66.9099 19.8007C66.2618 19.1152 65.9332 18.1526 65.9332 16.9414C65.9332 15.7225 66.2759 14.7352 66.9513 14.0067C67.6246 13.2804 68.5171 12.9119 69.6039 12.9119C70.5335 12.9119 71.4393 13.2267 72.2964 13.8484L72.415 13.9345V11.2044L72.3767 11.1828C72.0542 11.0023 71.6143 10.8532 71.0682 10.7402C70.5245 10.6274 69.9926 10.5705 69.4873 10.5705ZM61.0528 10.8603H58.2245V22.8834H61.0528V10.8603ZM59.6676 5.73839C59.2021 5.73839 58.7961 5.89685 58.4626 6.21086C58.1276 6.52575 57.9577 6.92222 57.9577 7.39013C57.9577 7.85067 58.1256 8.23991 58.4573 8.54643C58.787 8.85206 59.1942 9.00697 59.6677 9.00697C60.1411 9.00697 60.5498 8.85206 60.8834 8.54694C61.2191 8.23991 61.3893 7.85079 61.3893 7.39013C61.3893 6.93859 61.2237 6.54618 60.8972 6.22354C60.571 5.90155 60.1572 5.73839 59.6676 5.73839ZM52.611 9.97322V22.8834H55.4973V6.10644H51.5025L46.4249 18.5679L41.4973 6.10644H37.3398V22.8833H40.0522V9.97195H40.1454L45.3487 22.8834H47.3957L52.5179 9.97322H52.611Z" fill="#ADADAD"/>
<path d="M14.2569 13.8047H0.952148V0.5H14.2569V13.8047Z" fill="#ADADAD"/>
<path d="M28.9466 13.8047H15.6421V0.5H28.9466V13.8047Z" fill="#ADADAD"/>
<path d="M14.2565 28.4999H0.952148V15.1953H14.2565V28.4999Z" fill="#ADADAD"/>
<path d="M28.9466 28.4999H15.6421V15.1953H28.9466V28.4999Z" fill="#ADADAD"/>
</svg>
