<svg width="190" height="36" viewBox="0 0 190 36" fill="none" xmlns="http://www.w3.org/2000/svg">
<g clip-path="url(#clip0)">
<path fill-rule="evenodd" clip-rule="evenodd" d="M0.0200721 7.24486C0.309205 3.19539 3.68599 0 7.80911 0H42.9501C47.0732 0 50.4499 3.19539 50.7391 7.24486H0.0200721ZM0 14.4447H50.7592V28.1903C50.7592 32.5032 47.2629 35.9995 42.9501 35.9995H7.80911C3.49625 35.9995 0 32.5032 0 28.1903V14.4447ZM8.27992 20.6997C6.78874 20.6997 5.57992 21.9085 5.57992 23.3997V27.4496C5.57992 28.9407 6.78874 30.1496 8.27992 30.1496C9.77099 30.1496 10.9798 28.9407 10.9798 27.4496V23.3997C10.9798 21.9085 9.77099 20.6997 8.27992 20.6997ZM14.1298 20.0247C14.1298 18.5335 15.3386 17.3247 16.8297 17.3247C18.3209 17.3247 19.5297 18.5335 19.5297 20.0247V30.8245C19.5297 32.3157 18.3209 33.5245 16.8297 33.5245C15.3386 33.5245 14.1298 32.3157 14.1298 30.8245V20.0247ZM25.3796 20.6997C23.8884 20.6997 22.6797 21.9085 22.6797 23.3997V27.4496C22.6797 28.9407 23.8884 30.1496 25.3796 30.1496C26.8707 30.1496 28.0796 28.9407 28.0796 27.4496V23.3997C28.0796 21.9085 26.8707 20.6997 25.3796 20.6997ZM31.2295 20.0247C31.2295 18.5335 32.4383 17.3247 33.9295 17.3247C35.4206 17.3247 36.6294 18.5335 36.6294 20.0247V30.8245C36.6294 32.3157 35.4206 33.5245 33.9295 33.5245C32.4383 33.5245 31.2295 32.3157 31.2295 30.8245V20.0247ZM42.4794 20.6997C40.9882 20.6997 39.7794 21.9085 39.7794 23.3997V27.4496C39.7794 28.9407 40.9882 30.1496 42.4794 30.1496C43.9704 30.1496 45.1793 28.9407 45.1793 27.4496V23.3997C45.1793 21.9085 43.9704 20.6997 42.4794 20.6997Z" fill="white"/>
</g>
<path d="M93.6693 13.72C93.6693 14.94 93.3893 16.06 92.8293 17.08C92.2693 18.08 91.4093 18.89 90.2493 19.51C89.0893 20.13 87.6493 20.44 85.9293 20.44H82.7493V28H77.6193V6.94H85.9293C87.6093 6.94 89.0293 7.23 90.1893 7.81C91.3493 8.39 92.2193 9.19 92.7993 10.21C93.3793 11.23 93.6693 12.4 93.6693 13.72ZM85.5393 16.36C86.5193 16.36 87.2493 16.13 87.7293 15.67C88.2093 15.21 88.4493 14.56 88.4493 13.72C88.4493 12.88 88.2093 12.23 87.7293 11.77C87.2493 11.31 86.5193 11.08 85.5393 11.08H82.7493V16.36H85.5393ZM95.32 19.6C95.32 17.88 95.64 16.37 96.28 15.07C96.94 13.77 97.83 12.77 98.95 12.07C100.07 11.37 101.32 11.02 102.7 11.02C103.88 11.02 104.91 11.26 105.79 11.74C106.69 12.22 107.38 12.85 107.86 13.63V11.26H112.99V28H107.86V25.63C107.36 26.41 106.66 27.04 105.76 27.52C104.88 28 103.85 28.24 102.67 28.24C101.31 28.24 100.07 27.89 98.95 27.19C97.83 26.47 96.94 25.46 96.28 24.16C95.64 22.84 95.32 21.32 95.32 19.6ZM107.86 19.63C107.86 18.35 107.5 17.34 106.78 16.6C106.08 15.86 105.22 15.49 104.2 15.49C103.18 15.49 102.31 15.86 101.59 16.6C100.89 17.32 100.54 18.32 100.54 19.6C100.54 20.88 100.89 21.9 101.59 22.66C102.31 23.4 103.18 23.77 104.2 23.77C105.22 23.77 106.08 23.4 106.78 22.66C107.5 21.92 107.86 20.91 107.86 19.63ZM133.801 11.26L123.301 35.95H117.781L121.621 27.43L114.811 11.26H120.541L124.411 21.73L128.251 11.26H133.801ZM143.276 28.24C141.636 28.24 140.156 27.89 138.836 27.19C137.536 26.49 136.506 25.49 135.746 24.19C135.006 22.89 134.636 21.37 134.636 19.63C134.636 17.91 135.016 16.4 135.776 15.1C136.536 13.78 137.576 12.77 138.896 12.07C140.216 11.37 141.696 11.02 143.336 11.02C144.976 11.02 146.456 11.37 147.776 12.07C149.096 12.77 150.136 13.78 150.896 15.1C151.656 16.4 152.036 17.91 152.036 19.63C152.036 21.35 151.646 22.87 150.866 24.19C150.106 25.49 149.056 26.49 147.716 27.19C146.396 27.89 144.916 28.24 143.276 28.24ZM143.276 23.8C144.256 23.8 145.086 23.44 145.766 22.72C146.466 22 146.816 20.97 146.816 19.63C146.816 18.29 146.476 17.26 145.796 16.54C145.136 15.82 144.316 15.46 143.336 15.46C142.336 15.46 141.506 15.82 140.846 16.54C140.186 17.24 139.856 18.27 139.856 19.63C139.856 20.97 140.176 22 140.816 22.72C141.476 23.44 142.296 23.8 143.276 23.8ZM159.888 5.8V28H154.758V5.8H159.888ZM166.186 9.52C165.286 9.52 164.546 9.26 163.966 8.74C163.406 8.2 163.126 7.54 163.126 6.76C163.126 5.96 163.406 5.3 163.966 4.78C164.546 4.24 165.286 3.97 166.186 3.97C167.066 3.97 167.786 4.24 168.346 4.78C168.926 5.3 169.216 5.96 169.216 6.76C169.216 7.54 168.926 8.2 168.346 8.74C167.786 9.26 167.066 9.52 166.186 9.52ZM168.736 11.26V28H163.606V11.26H168.736ZM188.233 19.36C188.233 19.84 188.203 20.34 188.143 20.86H176.533C176.613 21.9 176.943 22.7 177.523 23.26C178.123 23.8 178.853 24.07 179.713 24.07C180.993 24.07 181.883 23.53 182.383 22.45H187.843C187.563 23.55 187.053 24.54 186.313 25.42C185.593 26.3 184.683 26.99 183.583 27.49C182.483 27.99 181.253 28.24 179.893 28.24C178.253 28.24 176.793 27.89 175.513 27.19C174.233 26.49 173.233 25.49 172.513 24.19C171.793 22.89 171.433 21.37 171.433 19.63C171.433 17.89 171.783 16.37 172.483 15.07C173.203 13.77 174.203 12.77 175.483 12.07C176.763 11.37 178.233 11.02 179.893 11.02C181.513 11.02 182.953 11.36 184.213 12.04C185.473 12.72 186.453 13.69 187.153 14.95C187.873 16.21 188.233 17.68 188.233 19.36ZM182.983 18.01C182.983 17.13 182.683 16.43 182.083 15.91C181.483 15.39 180.733 15.13 179.833 15.13C178.973 15.13 178.243 15.38 177.643 15.88C177.063 16.38 176.703 17.09 176.563 18.01H182.983Z" fill="white"/>
<defs>
<clipPath id="clip0">
<rect width="50.7592" height="36" fill="white"/>
</clipPath>
</defs>
</svg>
