<svg width="94" height="25" viewBox="0 0 94 25" fill="none" xmlns="http://www.w3.org/2000/svg">
<path d="M64.2269 6.83508C63.828 9.45438 61.8278 9.45438 59.8934 9.45438H58.7926L59.5651 4.5639C59.6121 4.26848 59.8661 4.05114 60.1653 4.05114H60.6705C61.9877 4.05114 63.2315 4.05114 63.8732 4.80099C64.2561 5.24977 64.3718 5.91588 64.2269 6.83508ZM63.3849 0.000831604H56.0877C55.8461 0.000951767 55.6123 0.0872116 55.4285 0.244123C55.2447 0.401037 55.1228 0.61833 55.0848 0.856995L52.1362 19.5675C52.1227 19.6542 52.128 19.7429 52.1519 19.8273C52.1758 19.9118 52.2177 19.9901 52.2748 20.0569C52.3318 20.1236 52.4026 20.1773 52.4823 20.2141C52.562 20.2509 52.6487 20.2701 52.7365 20.2703H56.481C56.8301 20.2703 57.1274 20.0162 57.1819 19.6719L58.0193 14.3656C58.0964 13.8735 58.5217 13.5094 59.0203 13.5094H61.3291C66.1368 13.5094 68.9104 11.1846 69.6348 6.57353C69.9613 4.55825 69.648 2.97388 68.7043 1.86463C67.6666 0.645306 65.8273 -0.000108719 63.3858 -0.000108719" fill="#C9B8CC"/>
<path d="M12.1797 6.83524C11.7808 9.45454 9.7806 9.45454 7.84529 9.45454H6.74451L7.51694 4.56406C7.56398 4.26863 7.81801 4.0513 8.11719 4.0513H8.62242C9.9396 4.0513 11.1834 4.0513 11.825 4.80115C12.2089 5.24993 12.3246 5.91604 12.1797 6.83524ZM11.3377 0.000991821H4.04054C3.5419 0.000991821 3.11663 0.364155 3.03854 0.857155L0.0890168 19.5676C0.0752822 19.6544 0.0805216 19.7431 0.104371 19.8276C0.12822 19.9122 0.170113 19.9906 0.227165 20.0574C0.284217 20.1242 0.355071 20.1778 0.434847 20.2146C0.514623 20.2514 0.601425 20.2704 0.689272 20.2704H4.17414C4.67278 20.2704 5.0971 19.9073 5.17519 19.4143L5.97208 14.3667C6.04923 13.8737 6.47449 13.5105 6.97313 13.5105H9.28195C14.0896 13.5105 16.8632 11.1847 17.5877 6.57369C17.9142 4.55841 17.6008 2.97404 16.6572 1.86479C15.6194 0.645466 13.7801 5.14984e-05 11.3386 5.14984e-05L11.3377 0.000991821ZM28.2794 13.5528C27.9407 15.5493 26.3572 16.89 24.3354 16.89C23.3221 16.89 22.5101 16.5635 21.9889 15.9463C21.4715 15.3348 21.2776 14.4626 21.4414 13.4926C21.7556 11.5131 23.3663 10.1301 25.3571 10.1301C26.3497 10.1301 27.1541 10.4594 27.6866 11.0822C28.222 11.7097 28.4327 12.5866 28.2794 13.5528ZM33.1492 6.75057H29.6549C29.5096 6.75039 29.3691 6.80217 29.2586 6.89655C29.1482 6.99093 29.0752 7.12169 29.0527 7.26521L28.9003 8.2418L28.6557 7.88804C27.8993 6.79008 26.2123 6.42221 24.5282 6.42221C20.668 6.42221 17.3703 9.34822 16.7287 13.4503C16.3947 15.4985 16.8689 17.4545 18.0299 18.8196C19.0958 20.0738 20.6172 20.5959 22.4302 20.5959C25.5425 20.5959 27.268 18.5976 27.268 18.5976L27.1118 19.5686C27.098 19.6554 27.1033 19.7442 27.1272 19.8288C27.1511 19.9134 27.1931 19.9918 27.2502 20.0587C27.3074 20.1255 27.3784 20.1791 27.4583 20.2158C27.5382 20.2525 27.6251 20.2715 27.713 20.2714H30.8591C31.3578 20.2714 31.783 19.9091 31.8611 19.4152L33.7503 7.45431C33.7639 7.36742 33.7585 7.2786 33.7345 7.19399C33.7105 7.10938 33.6684 7.03097 33.6112 6.96418C33.554 6.89739 33.4829 6.84379 33.403 6.80707C33.3231 6.77036 33.2362 6.7514 33.1482 6.75151" fill="#C9B8CC"/>
<path d="M80.3266 13.5528C79.9879 15.5493 78.4044 16.89 76.3826 16.89C75.3693 16.89 74.5573 16.5635 74.0361 15.9463C73.5187 15.3348 73.3249 14.4626 73.4886 13.4926C73.8028 11.5131 75.4126 10.1301 77.4043 10.1301C78.3969 10.1301 79.2013 10.4594 79.7338 11.0822C80.2692 11.7097 80.4799 12.5866 80.3266 13.5528ZM85.1963 6.75057H81.7021C81.5568 6.7504 81.4163 6.80218 81.3058 6.89656C81.1954 6.99094 81.1224 7.12169 81.0999 7.26521L80.9475 8.2418L80.7029 7.88805C79.9465 6.79009 78.2595 6.42222 76.5754 6.42222C72.7161 6.42222 69.4185 9.34823 68.7759 13.4503C68.4419 15.4985 68.917 17.4545 70.078 18.8196C71.144 20.0738 72.6653 20.5959 74.4783 20.5959C77.5915 20.5959 79.317 18.5976 79.317 18.5976L79.1609 19.5686C79.1468 19.6553 79.1518 19.744 79.1755 19.8287C79.1991 19.9133 79.2409 19.9917 79.2979 20.0586C79.3549 20.1255 79.4258 20.1791 79.5056 20.2159C79.5854 20.2526 79.6723 20.2715 79.7602 20.2714H82.9054C83.404 20.2714 83.8293 19.9091 83.9083 19.4152L85.7975 7.45432C85.8111 7.36742 85.8057 7.27861 85.7817 7.19399C85.7577 7.10938 85.7156 7.03098 85.6584 6.96419C85.6012 6.89739 85.5301 6.84379 85.4502 6.80708C85.3703 6.77036 85.2833 6.75141 85.1954 6.75151" fill="#C9B8CC"/>
<path d="M51.7599 6.75149H48.2468C47.9109 6.75149 47.5976 6.91802 47.4094 7.19651L42.5641 14.3318L40.5103 7.47499C40.4476 7.26585 40.3192 7.08246 40.1442 6.95197C39.9691 6.82149 39.7567 6.75086 39.5384 6.75055H36.0865C35.9897 6.7506 35.8943 6.77373 35.8082 6.81802C35.7221 6.86232 35.6479 6.9265 35.5916 7.00524C35.5353 7.08398 35.4986 7.17501 35.4845 7.27078C35.4704 7.36655 35.4794 7.4643 35.5107 7.55591L39.3775 18.9081L35.7402 24.0403C35.6759 24.1314 35.6379 24.2384 35.6303 24.3497C35.6227 24.4609 35.6458 24.5721 35.697 24.6711C35.7483 24.7701 35.8257 24.8532 35.921 24.9112C36.0162 24.9692 36.1255 24.9999 36.237 25H39.7463C40.0775 25 40.3889 24.8372 40.579 24.5644L52.2585 7.70644C52.3219 7.61531 52.3592 7.50856 52.3662 7.39776C52.3733 7.28697 52.3498 7.17636 52.2984 7.07795C52.247 6.97954 52.1697 6.89708 52.0747 6.83953C51.9798 6.78198 51.8709 6.75153 51.7599 6.75149Z" fill="#C9B8CC"/>
<path d="M89.3145 0.515509L86.3188 19.5684C86.3053 19.6553 86.3106 19.744 86.3346 19.8285C86.3586 19.9131 86.4006 19.9914 86.4577 20.0582C86.5148 20.125 86.5857 20.1786 86.6655 20.2154C86.7453 20.2522 86.8322 20.2712 86.92 20.2712H89.9317C90.4303 20.2712 90.8556 19.9081 90.9337 19.4151L93.887 0.703678C93.9007 0.616833 93.8954 0.52804 93.8715 0.443424C93.8476 0.358809 93.8057 0.280388 93.7485 0.213573C93.6914 0.146757 93.6204 0.0931396 93.5405 0.0564175C93.4606 0.0196953 93.3737 0.000745773 93.2858 0.000873566H89.9157C89.7706 0.00050354 89.6302 0.0521164 89.5199 0.146355C89.4096 0.240593 89.3367 0.37122 89.3145 0.514568" fill="#C9B8CC"/>
</svg>
