<svg width="56" height="58" viewBox="0 0 56 58" fill="none" xmlns="http://www.w3.org/2000/svg">
<path d="M9.8125 26.6875L12.125 50.9688H10.9688V56.75H43.3438V50.9688H41.0312L43.3438 26.6875H9.8125Z" fill="white"/>
<path d="M43.3438 26.6875H9.8125L10.0438 30.1562H39.875L37.5625 52.125H39.875V56.75H43.3438V50.9688H41.0312L43.3438 26.6875Z" fill="#DEE0E2"/>
<path d="M34.6719 26.3406L46.4656 3.33125L52.7094 6.56875L42.4188 26.3406" stroke="#4D535B" stroke-width="2" stroke-miterlimit="10"/>
<path d="M47.9686 25.7625L54.0967 13.7375L43.8061 8.41875L47.9686 25.7625ZM6.22799 17.3219L11.4311 26.3406L6.22799 17.3219ZM21.1436 26.3406L13.3967 12.6969L21.1436 26.3406ZM13.2811 13.7375L6.57486 18.0156L13.2811 13.7375ZM16.2874 26.3406L10.6217 15.7031L16.2874 26.3406ZM31.203 26.3406L31.3186 11.8875L27.3874 3.44688L23.6874 12.2344V26.3406H31.203ZM30.7405 12.5813L23.6874 12.9281L30.7405 12.5813ZM27.503 26.3406L27.2717 13.8531L27.503 26.3406ZM41.7249 50.7375L43.6905 26.6875H10.0436L11.8936 50.7375H41.7249ZM10.2749 56.9813H43.4592V51.2H10.2749V56.9813V56.9813ZM2.52799 1.59688C1.38913 4.92073 1.30834 8.51584 2.29674 11.8875C4.03111 16.6281 8.19361 17.6688 11.4311 13.8531C11.808 13.5096 12.0829 13.0689 12.2257 12.5793C12.3684 12.0898 12.3736 11.5704 12.2405 11.0781C10.9686 7.37813 7.26861 8.53438 2.52799 1.59688V1.59688Z" stroke="#4D535B" stroke-width="2" stroke-miterlimit="10"/>
<g style="mix-blend-mode:darken">
<path d="M6.34361 18.5937L12.1249 26.6875H21.3749L14.4374 13.9687L6.34361 18.5937ZM2.52799 1.59688C1.38913 4.92073 1.30834 8.51584 2.29674 11.8875C4.03111 16.6281 8.19361 17.6687 11.4311 13.8531C11.808 13.5096 12.0829 13.0689 12.2257 12.5793C12.3684 12.0898 12.3736 11.5704 12.2405 11.0781C10.9686 7.37813 7.26861 8.53438 2.52799 1.59688ZM34.0936 26.6875L46.8124 3.5625L52.5936 7.03125L42.1874 26.6875H34.0936ZM23.6874 26.6875H31.7811L30.6249 12.8125L27.1561 3.5625L23.6874 12.8125V26.6875Z" fill="#F9B3FF"/>
</g>
</svg>
