<svg width="60" height="53" viewBox="0 0 60 53" fill="none" xmlns="http://www.w3.org/2000/svg">
<path d="M5.71875 5.34375H54.2812V38.875H5.71875V5.34375Z" fill="white"/>
<path d="M5.71875 5.34375V8.8125H50.8125V38.875H54.2812V5.34375H5.71875Z" fill="#DEE0E2"/>
<path d="M15.0846 51.2469H44.9158M4.21582 1.06563H55.7846C56.5512 1.06563 57.2865 1.37018 57.8286 1.91227C58.3706 2.45437 58.6752 3.18961 58.6752 3.95625V39.4531C58.6758 40.2308 58.375 40.9784 57.8359 41.539C57.2969 42.0996 56.5617 42.4295 55.7846 42.4594H4.21582C3.43872 42.4295 2.70345 42.0996 2.16444 41.539C1.62543 40.9784 1.32462 40.2308 1.3252 39.4531V3.95625C1.3252 3.18961 1.62974 2.45437 2.17184 1.91227C2.71394 1.37018 3.44918 1.06563 4.21582 1.06563V1.06563ZM5.4877 5.1125H54.5127V38.2969H5.4877V5.1125V5.1125ZM26.5314 29.2781C26.6878 29.2595 26.8463 29.2767 26.995 29.3282C27.1438 29.3797 27.2789 29.4643 27.3902 29.5756C27.5015 29.687 27.5861 29.8221 27.6376 29.9708C27.6892 30.1196 27.7063 30.2781 27.6877 30.4344C27.6877 30.741 27.5659 31.0351 27.349 31.252C27.1322 31.4688 26.8381 31.5906 26.5314 31.5906C26.2335 31.5646 25.9543 31.4344 25.7429 31.2229C25.5314 31.0115 25.4012 30.7323 25.3752 30.4344C25.3752 30.1277 25.497 29.8336 25.7139 29.6168C25.9307 29.3999 26.2248 29.2781 26.5314 29.2781ZM33.9314 29.2781C34.0878 29.2595 34.2463 29.2767 34.395 29.3282C34.5438 29.3797 34.6789 29.4643 34.7902 29.5756C34.9015 29.687 34.9861 29.8221 35.0376 29.9708C35.0892 30.1196 35.1063 30.2781 35.0877 30.4344C35.0877 30.741 34.9659 31.0351 34.749 31.252C34.5322 31.4688 34.2381 31.5906 33.9314 31.5906C33.6248 31.5906 33.3307 31.4688 33.1139 31.252C32.897 31.0351 32.7752 30.741 32.7752 30.4344C32.7566 30.2781 32.7737 30.1196 32.8253 29.9708C32.8768 29.8221 32.9614 29.687 33.0727 29.5756C33.184 29.4643 33.3191 29.3797 33.4679 29.3282C33.6166 29.2767 33.7751 29.2595 33.9314 29.2781V29.2781ZM17.1658 13.3219H21.0971L24.6814 25.1156H36.7064L17.1658 13.3219ZM23.9877 21.5313H37.9783H23.9877ZM23.0627 17.9469H38.7877H23.0627ZM35.2033 42.8063V50.7844V42.8063ZM24.7971 50.7844V42.8063V50.7844Z" stroke="#4D535B" stroke-width="2" stroke-miterlimit="10"/>
<g style="mix-blend-mode:darken">
<path d="M24.2188 42.3438H35.7812V50.4375H24.2188V42.3438Z" fill="#F9B3FF"/>
</g>
</svg>
