<svg width="58" height="50" viewBox="0 0 58 50" fill="none" xmlns="http://www.w3.org/2000/svg">
<path d="M9.34375 7.65625H48.6562V42.3438H9.34375V7.65625Z" fill="white"/>
<path d="M9.34375 7.65625V11.125H46.3438V42.3438H48.6562V7.65625H9.34375Z" fill="#DEE0E2"/>
<path d="M1.25 0.603104V49.3969V0.603104ZM8.76562 0.603104V49.3969V0.603104ZM1.48125 3.60935H8.53438H1.48125ZM1.48125 10.7781H8.53438H1.48125ZM1.48125 17.8312H8.53438H1.48125ZM1.48125 25H8.53438H1.48125ZM1.48125 32.1687H8.53438H1.48125ZM1.48125 39.2219H8.53438H1.48125ZM1.48125 46.3906H8.53438H1.48125ZM49.2344 0.603104V49.3969V0.603104ZM56.75 0.603104V49.3969V0.603104ZM49.4656 3.60935H56.5187H49.4656ZM49.4656 10.7781H56.5187H49.4656ZM49.4656 17.8312H56.5187H49.4656ZM49.4656 25H56.5187H49.4656ZM49.4656 32.1687H56.5187H49.4656ZM49.4656 39.2219H56.5187H49.4656ZM49.4656 46.3906H56.5187H49.4656ZM10.0375 41.9969H49.2344H10.0375ZM10.0375 8.0031H49.2344H10.0375ZM23.5656 15.6344C25.4239 14.5468 27.5633 14.0357 29.7124 14.1658C31.8616 14.296 33.9237 15.0615 35.6371 16.3653C37.3505 17.6691 38.6381 19.4525 39.3365 21.4891C40.035 23.5258 40.1127 25.724 39.56 27.805C39.0072 29.8859 37.8489 31.7558 36.2318 33.1774C34.6148 34.599 32.612 35.5084 30.4774 35.7901C28.3428 36.0717 26.1727 35.7131 24.2422 34.7596C22.3118 33.8061 20.708 32.3007 19.6344 30.4344C18.9107 29.207 18.4382 27.8481 18.2442 26.4366C18.0502 25.0251 18.1387 23.5891 18.5045 22.2121C18.8702 20.8351 19.506 19.5445 20.3749 18.4153C21.2437 17.2861 22.3283 16.3408 23.5656 15.6344V15.6344Z" stroke="#4D535B" stroke-width="2" stroke-miterlimit="10"/>
<path d="M25.8779 20.2594V30.4344L30.3873 27.8906L34.7811 25.3469L30.3873 22.8031L25.8779 20.2594Z" fill="#4D535B"/>
<g style="mix-blend-mode:darken">
<path d="M1.25 4.1875H8.1875V45.8125H1.25V4.1875ZM49.8125 4.1875H56.75V45.8125H49.8125V4.1875Z" fill="#F9B3FF"/>
</g>
</svg>
